<svg width="62" height="52" viewBox="0 0 62 52" fill="none" xmlns="http://www.w3.org/2000/svg">
<path d="M41.6663 36.6676L30.9997 26.001L20.333 36.6676" stroke="#00006B" stroke-opacity="0.8" stroke-width="2.64091" stroke-linecap="round" stroke-linejoin="round"/>
<path d="M31.0073 26.001V50.001" stroke="#00006B" stroke-opacity="0.8" stroke-width="2.64091" stroke-linecap="round" stroke-linejoin="round"/>
<path d="M53.3737 43.0418C55.9746 41.6238 58.0293 39.3801 59.2134 36.6648C60.3975 33.9494 60.6436 30.917 59.9129 28.0463C59.1822 25.1755 57.5163 22.6298 55.1782 20.8109C52.84 18.9921 49.9627 18.0037 47.0004 18.0017H43.6404C42.8332 14.8797 41.3288 11.9813 39.2402 9.5244C37.1517 7.06748 34.5333 5.11602 31.582 3.8167C28.6307 2.51739 25.4232 1.90404 22.2007 2.02277C18.9782 2.1415 15.8246 2.98921 12.9769 4.50219C10.1291 6.01516 7.66148 8.15402 5.75937 10.758C3.85727 13.3619 2.57022 16.3632 1.995 19.5361C1.41977 22.7091 1.57133 25.9712 2.43828 29.0771C3.30524 32.1831 4.86503 35.0521 7.00038 37.4684" stroke="#00006B" stroke-opacity="0.8" stroke-width="2.64091" stroke-linecap="round" stroke-linejoin="round"/>
<path d="M41.6663 36.6676L30.9997 26.001L20.333 36.6676" stroke="#00006B" stroke-opacity="0.8" stroke-width="2.64091" stroke-linecap="round" stroke-linejoin="round"/>
</svg>
